# xmcd CD database file
#
# Track frame offsets:
#	150
#	9754
#	18261
#	35956
#	47451
#	58783
#	68641
#	81083
#	92810
#	106442
#	116431
#	127296
#	140997
#	156733
#
# Disc length: 2236 seconds
#
# Revision: 3
# Processed by: cddbd v1.5.2PL0 Copyright (c) Steve Scherf et al.
# Submitted via: CDex 1.70beta2
#
DISCID=c508ba0e
DTITLE=Various Artist - The Beginning Of Rock 'n' Roll (Elvis and Friends)  CD3
DYEAR=2005
DGENRE=Country
TTITLE0=Elvis Presley - Blue Moon Of Kentucky
TTITLE1=Jerry Lee Lewis - Great Balls Of Fire
TTITLE2=Elvis Presley - Love Me Tender  (Live)
TTITLE3=Elvis Presley - Money Honey  (Bootleg)
TTITLE4=Chuck Berry - Rock And Roll Music  (Live)
TTITLE5=Elvis Presley - Tweedle Dee  (Bootleg)
TTITLE6=Bill Haley and His Comets - See You Later Alligator
TTITLE7=Elvis Presley - I Was The One  (Live)
TTITLE8=Little Richard - The Girl Can't Help It
TTITLE9=Elvis Presley - I Don't Care If The Sun Don't Shine  (Live)
TTITLE10=Elvis Presley - I Got A Woman  (Live)
TTITLE11=Roy Orbison - Blue Bayou  (Live)
TTITLE12=Elvis Presley - Hound Dog
TTITLE13=Carl Perkins - Pink Pedal Pushers
EXTD=dies ist die dritte CD aus der 3er Box YEAR: 2005
EXTT0=
EXTT1=
EXTT2=
EXTT3=
EXTT4=
EXTT5=
EXTT6=
EXTT7=
EXTT8=
EXTT9=
EXTT10=
EXTT11=
EXTT12=
EXTT13=
PLAYORDER=
